<?xml version="1.0" encoding="utf-8"?>
<!-- Generator: Adobe Illustrator 19.0.0, SVG Export Plug-In . SVG Version: 6.00 Build 0)  -->
<svg version="1.1" id="Layer_1" xmlns="http://www.w3.org/2000/svg" xmlns:xlink="http://www.w3.org/1999/xlink" x="0px" y="0px"
	 viewBox="0 0 96 96" style="enable-background:new 0 0 96 96;" xml:space="preserve">
<style type="text/css">
	.st0{fill:#333333;}
</style>
<g id="XMLID_2_">
	<path id="XMLID_4_" class="st0" d="M75.3,22.1c0.4,1.1,0.3,2-0.5,2.7L55.5,44V73c0,1.1-0.5,1.9-1.5,2.3c-0.3,0.1-0.7,0.2-1,0.2
		c-0.7,0-1.3-0.2-1.8-0.7l-10-10c-0.5-0.5-0.7-1.1-0.7-1.8V44L21.3,24.8c-0.8-0.8-1-1.7-0.5-2.7c0.4-1,1.2-1.5,2.3-1.5H73
		C74.1,20.5,74.8,21,75.3,22.1z"/>
</g>
</svg>
